<svg width="1600" height="900" viewBox="0 0 1600 900" fill="none" xmlns="http://www.w3.org/2000/svg">
  <rect width="1600" height="900" fill="#050505"/>
  <rect x="70" y="80" width="980" height="740" rx="26" fill="#0F172A" stroke="#334155"/>
  <rect x="110" y="130" width="900" height="58" rx="14" fill="#111827"/>
  <text x="140" y="165" fill="#E5E7EB" font-size="24" font-family="Inter, Arial">PulsePath Decision Guide Chat</text>
  <rect x="110" y="220" width="900" height="480" rx="16" fill="#0B1220" stroke="#1F2937"/>
  <rect x="150" y="260" width="520" height="66" rx="20" fill="#1E293B"/>
  <text x="180" y="300" fill="#CBD5E1" font-size="20" font-family="Inter, Arial">I work near UW, rent under $1800.</text>
  <rect x="380" y="360" width="540" height="82" rx="20" fill="#1D4ED8"/>
  <text x="410" y="400" fill="#EFF6FF" font-size="20" font-family="Inter, Arial">Great — targeting UW commute + budget.</text>
  <rect x="150" y="740" width="620" height="48" rx="24" fill="#111827" stroke="#374151"/>
  <text x="190" y="770" fill="#94A3B8" font-size="18" font-family="Inter, Arial">Type criteria and press Enter…</text>
  <rect x="790" y="740" width="120" height="48" rx="24" fill="#2563EB"/>
  <text x="828" y="771" fill="white" font-size="18" font-family="Inter, Arial">Send</text>
  <rect x="1090" y="80" width="440" height="740" rx="24" fill="#111827" stroke="#334155"/>
  <text x="1130" y="130" fill="#E5E7EB" font-size="24" font-family="Inter, Arial">Criteria Summary</text>
  <rect x="1130" y="170" width="360" height="2" fill="#374151"/>
  <text x="1130" y="220" fill="#93C5FD" font-size="18" font-family="Inter, Arial">• Work: UW</text>
  <text x="1130" y="260" fill="#93C5FD" font-size="18" font-family="Inter, Arial">• Budget: $1800</text>
  <text x="1130" y="300" fill="#93C5FD" font-size="18" font-family="Inter, Arial">• Commute: 20 min</text>
  <text x="1130" y="340" fill="#93C5FD" font-size="18" font-family="Inter, Arial">• Wellness: parks</text>
</svg>